<svg width="1600" height="1134" viewBox="0 0 1600 1134" fill="none" xmlns="http://www.w3.org/2000/svg">
<g style="mix-blend-mode:hard-light" opacity="0.04">
<path d="M565.976 199.985L673.53 262.024L632.132 333.687L566.008 295.549L338.037 427.101L338.043 690.168L404.173 728.295L362.75 800L255.204 737.947V379.305L565.976 199.985ZM-151.446 199.985L159.326 379.305V737.947L51.7798 800L10.357 728.295L76.4875 690.168L76.4933 427.101L-151.478 295.549L-217.601 333.687L-259 262.024L-151.446 199.985ZM-14.0661 0L-14.0523 76.3009L213.927 207.839L441.878 76.3009L441.851 0H524.698V124.11L213.927 303.431L-96.8449 124.11L-96.8634 0H-14.0661Z" fill="#5FC9F8"/>
</g>
<g style="mix-blend-mode:hard-light" opacity="0.04">
<path d="M1958.98 533.985L2066.53 596.024L2025.13 667.687L1959.01 629.549L1731.04 761.101L1731.04 1024.17L1797.17 1062.29L1755.75 1134L1648.2 1071.95V713.305L1958.98 533.985ZM1241.55 533.985L1552.33 713.305V1071.95L1444.78 1134L1403.36 1062.29L1469.49 1024.17L1469.49 761.101L1241.52 629.549L1175.4 667.687L1134 596.024L1241.55 533.985ZM1378.93 334L1378.95 410.301L1606.93 541.839L1834.88 410.301L1834.85 334H1917.7V458.11L1606.93 637.431L1296.16 458.11L1296.14 334H1378.93Z" fill="#5FC9F8"/>
</g>
</svg>
